<svg width="81" height="94" viewBox="0 0 81 94" fill="none" xmlns="http://www.w3.org/2000/svg">
<path d="M73.5702 1.00777C71.6515 1.74863 69.6949 3.59129 67.8523 6.34577C66.0286 9.08126 63.597 14.6282 62.6662 18.1616C62.4003 19.1684 62.2483 19.4533 61.9824 19.4533C61.7924 19.4533 61.4884 19.6623 61.3175 19.9282C60.8806 20.5931 61.2035 21.315 62.4003 22.3788L63.3121 23.2146L62.1723 24.9243C60.7096 27.1089 59.2469 30.3383 58.0691 33.9286C57.2522 36.4171 57.1193 36.7211 56.7963 36.6071C55.5806 36.2462 53.282 36.7211 51.0974 37.8229C46.5572 40.0835 42.8909 43.7118 40.8013 47.986L40.2694 49.0878H38.4268H36.5651L36.7551 48.4799C36.8501 48.138 36.926 47.2261 36.926 46.4663C36.926 43.9967 36.4131 42.8569 31.1701 33.7007C28.6056 29.1985 26.231 26.33 23.9895 25.0193C23.4196 24.6773 22.3748 24.2594 21.6529 24.0695C20.5131 23.8035 20.1712 23.7845 18.9934 23.9935C18.2525 24.1264 17.5497 24.2594 17.4167 24.2594C17.3027 24.2784 16.7328 23.3476 16.1629 22.1888C15.0991 20.0422 13.8074 17.8956 11.1858 13.8494C10.369 12.5956 9.11524 10.582 8.37437 9.38521C7.04462 7.14362 5.88584 5.75688 4.97401 5.28197C4.21415 4.88305 2.58046 4.94004 1.8206 5.39595C0.946762 5.92785 0.376869 7.25761 0.52884 8.41639C0.718805 9.89811 2.01056 12.1397 4.42311 15.1601C5.67688 16.7178 6.6457 18.0856 6.6077 18.1996C6.55071 18.3325 7.00663 19.1114 7.61452 19.9472C8.7923 21.5809 11.2238 25.3612 12.2117 27.0899L12.8195 28.1727L12.2496 29.8444C11.4708 32.1429 11.2048 34.2516 11.3378 36.9111C11.5088 40.2544 12.2496 43.1609 13.7694 46.4093C14.1873 47.2831 14.4722 48.043 14.4342 48.081C14.3962 48.138 12.9905 48.1 11.3188 48.005C9.64714 47.91 7.44355 47.91 6.41774 47.986C5.22096 48.081 4.4801 48.062 4.36612 47.948C4.10017 47.682 3.56827 47.72 3.24533 48.043C2.44748 48.8218 2.3525 56.0025 3.09336 59.5168C5.61989 71.5036 14.7762 81.8187 26.44 85.8459C26.611 85.9029 26.573 86.0929 26.288 86.5488C25.5092 87.8405 26.0221 89.6452 27.4658 90.69C28.6626 91.5638 30.3343 91.9818 35.1974 92.6086C48.7038 94.3563 56.6823 92.9696 58.582 88.5624C58.9429 87.7266 58.9999 87.3276 58.9239 85.9789L58.8289 84.3832L59.7028 84.0223C66.0096 81.3817 70.5877 76.8036 73.9691 69.7559C76.4576 64.5509 77.9394 58.852 78.6232 51.7473C78.9652 48.2329 78.9652 47.853 78.6042 47.4921C78.2623 47.1311 77.5594 47.0932 77.2555 47.3971C77.1415 47.5111 76.4956 47.6441 75.8308 47.663C75.1659 47.701 72.2784 47.891 69.41 48.119C66.5415 48.3279 63.597 48.5179 62.8562 48.5369L61.5264 48.5939L61.3935 46.6182C61.1465 43.0089 60.5576 40.4254 59.5128 38.4498L58.9619 37.405L59.8927 35.3154C60.4056 34.1566 61.5834 31.725 62.5332 29.9014C63.4831 28.0777 64.4329 26.0641 64.6609 25.4372L65.0598 24.2784L66.4275 24.2974C67.6243 24.2974 67.9472 24.2214 69.03 23.6515C71.6705 22.2458 74.596 18.6365 77.9014 12.6716C79.934 9.00528 80.5229 7.40958 80.5039 5.39595C80.5039 3.19237 79.782 2.07157 77.7684 1.14075C76.4956 0.551857 74.8809 0.494865 73.5702 1.00777ZM77.1605 3.87624C78.0344 4.40813 78.2433 5.05402 77.9774 6.34577C77.7304 7.58054 75.6028 12.0067 74.0831 14.4763C71.6705 18.3705 68.5171 22.1508 67.4533 22.4168C66.6745 22.6067 65.6297 22.2268 64.6988 21.4289C63.977 20.8211 63.92 20.7071 64.1479 20.4221C64.6988 19.7953 65.6107 17.9716 66.1806 16.3189C67.5293 12.4816 70.4358 7.23861 72.3164 5.24398C73.8361 3.64828 75.8498 3.07838 77.1605 3.87624ZM4.11917 8.51137C5.16397 9.55618 6.91165 12.1207 9.95108 17.0788C13.4084 22.7017 14.1113 23.6325 16.4669 25.6842C16.5428 25.7601 16.7328 25.9881 16.8848 26.1971C17.0937 26.52 17.4167 26.596 19.1264 26.691C20.874 26.7859 21.292 26.8809 22.3748 27.4128C24.7493 28.5716 26.7059 30.7942 29.0615 34.9354C29.7644 36.1892 31.0561 38.4308 31.93 39.8935C32.8038 41.3752 33.7916 43.2179 34.1336 43.9777C34.6655 45.2315 34.7224 45.5734 34.7414 47.2831C34.7414 49.0118 34.6845 49.2777 34.1905 50.2276C33.4117 51.7283 31.3221 53.6849 28.3396 55.6985C26.9149 56.6484 25.6421 57.4462 25.5282 57.4462C25.1102 57.4462 23.8185 56.6674 22.7167 55.7555C21.197 54.5018 19.4113 52.0512 17.6636 48.9168C14.0733 42.439 12.9145 38.7727 12.8955 33.8906C12.8955 31.2311 13.2565 28.7426 13.6364 28.7806C14.5672 28.8946 14.5482 27.9827 13.5794 26.0641C12.8575 24.6583 9.91309 20.1372 9.57115 19.9282C9.49516 19.8712 9.45717 19.6623 9.51416 19.4533C9.66613 18.8644 8.83029 17.6677 5.48691 13.7544C2.20053 9.91711 1.66863 8.98628 2.16253 8.03646C2.50447 7.42857 3.18834 7.59954 4.11917 8.51137ZM53.8519 40.5774C49.1977 46.7702 45.5504 54.8247 44.0117 62.2903C43.8217 63.1831 43.6128 63.905 43.5558 63.905C43.2709 63.905 42.359 62.6133 41.8461 61.5305C39.4716 56.4774 42.359 47.3971 47.811 42.781C49.4637 41.3752 51.6483 40.0265 53.5289 39.2666C54.3838 38.9247 55.1246 38.6397 55.2006 38.6397C55.2766 38.6397 54.6687 39.5136 53.8519 40.5774ZM56.6633 40.6344C55.7705 50.1896 52.2942 58.0161 47.0131 62.2903C46.3103 62.8602 45.6644 63.3351 45.6074 63.3351C45.5504 63.3351 45.6454 62.8412 45.7974 62.2333C47.2411 56.5534 50.0716 49.6197 53.054 44.4526C54.3458 42.2111 56.6823 38.5827 56.7773 38.6777C56.8153 38.7157 56.7583 39.5896 56.6633 40.6344ZM58.582 45.5544C58.8669 47.796 58.734 51.3864 58.297 53.5519C57.1573 59.0799 54.8017 62.8222 51.4393 64.4179C50.0716 65.0638 49.7676 65.1398 48.039 65.1968L46.1393 65.2728L46.8992 64.6459C48.6848 63.2021 51.5533 60.1057 52.5791 58.548C54.9347 54.9197 56.6633 50.5315 57.5942 45.8204C57.8791 44.3957 58.1641 43.3319 58.2401 43.4458C58.297 43.5788 58.468 44.5286 58.582 45.5544ZM7.10161 49.3917C8.08943 49.6387 10.464 50.0186 12.3636 50.2086C14.2823 50.3985 15.878 50.5885 15.897 50.6265C15.935 50.6645 16.3719 51.4243 16.8848 52.3172C18.8034 55.6796 20.5511 57.5982 22.6977 58.662C24.3314 59.4788 25.5282 59.5928 25.9841 58.9469C26.1361 58.719 26.8959 58.2821 27.6558 57.9401C30.5432 56.6864 33.0128 54.7867 34.8554 52.3932L35.6723 51.3104L37.4579 51.4243C38.4458 51.4813 39.2816 51.5763 39.3196 51.6143C39.3766 51.6713 39.2816 52.2412 39.1106 52.9061C38.4078 55.5846 38.4458 59.4598 39.1866 61.6634C41.3902 68.3122 48.9128 69.7369 54.9917 64.6459C56.2644 63.5821 58.0501 61.1505 58.9619 59.2509C59.7978 57.4842 60.9375 53.7609 61.1465 52.0892L61.2795 51.0254L62.1723 50.9114C62.6472 50.8545 64.034 50.7595 65.2307 50.7025C67.8333 50.5695 73.7981 50.1136 75.3559 49.9236L76.4576 49.7906L76.3247 50.5315C75.9447 52.6211 73.8931 60.5236 73.1523 62.7652C69.7139 73.0803 64.2429 79.2541 55.9225 82.1986C54.9157 82.5405 54.6307 82.7305 54.4028 83.2244C54.1558 83.7373 53.9659 83.8703 53.168 84.0412C50.3945 84.6111 46.3863 84.9341 39.5855 85.181C36.6031 85.276 33.2217 85.428 32.0629 85.485L29.9543 85.618L30.0493 85.0101C30.2013 83.9463 29.2515 83.2624 26.573 82.5215C19.0694 80.4319 12.1167 74.676 8.46936 67.5333C5.80985 62.3663 4.86003 58.51 4.68906 52.3362C4.59408 48.7838 4.59408 48.6509 4.93602 48.7838C5.14498 48.8598 6.1138 49.1448 7.10161 49.3917ZM56.4354 86.8147C56.5114 87.4796 56.4544 87.6506 55.7515 88.4484C54.8397 89.4742 53.5859 90.1391 51.4583 90.709C49.2927 91.2979 42.378 91.4309 37.7809 90.975C30.7712 90.2911 29.3844 90.0251 28.4346 89.1323C27.7887 88.5244 27.8457 87.5936 28.5486 87.0997L29.0995 86.7008L30.0113 87.1377C30.8852 87.5366 31.2271 87.5556 35.9572 87.6126C40.6303 87.6696 43.4608 87.5556 49.2737 87.0807C53.5099 86.7197 54.5357 86.5678 55.2766 86.1878C55.6945 85.9979 56.0935 85.8839 56.1694 85.9599C56.2644 86.0359 56.3784 86.4158 56.4354 86.8147Z" fill="white"/>
</svg>
